# xmcd
#
# Track frame offsets:
#	150
#	13324
#	27670
#	39712
#	50675
#	61452
#	72801
#	83240
#	95792
#	108190
#	116476
#	126798
#	137326
#	149638
#	160812
#	172003
#	181746
#	191304
#
# Disc length: 2762 seconds
#
# Revision: 2
# Processed by: cddbd v1.5.2PL0 Copyright (c) Steve Scherf et al.
# Submitted via: audiograbber 1.83.01
#
DISCID=030ac812
DTITLE=Various Artist - Country [CD1]
DYEAR=2004
DGENRE=Country
TTITLE0=Kenny Rogers and The First Edition - Shine On Ruby Mountain
TTITLE1=Jeannie C. Riley - Harper Valley P.T.A.
TTITLE2=Hank Williams - Never Again (WIll I Knock On Your Door)
TTITLE3=Patsy Cline - A Stranger In My Arms
TTITLE4=Donna Fargo - Wishful Thinking
TTITLE5=Ed Bruce - Baby Thats Good
TTITLE6=Jerry Wallace - Empty Arms Again
TTITLE7=Charley Pride - Crystal Chandeliers
TTITLE8=Billie Jo Spears - He's On The Run Again
TTITLE9=Boxcar Willie - Hey Good Lookin'
TTITLE10=Willie Nelson - Blame It On The Times
TTITLE11=Freddy Fender - A Man Can Cry
TTITLE12=Jerry Lee Lewis - Crazy Arms
TTITLE13=Waylon Jennings - Sally Was A Good Old Girl
TTITLE14=Hank Locklin - Send Me The Pillow You Dream
TTITLE15=Boxcar Willie - King Of The Road
TTITLE16=Ned Miller - From A Jack To A King
TTITLE17=Ed Bruce - No Money Down
EXTD=YEAR: 2004
EXTT0=
EXTT1=
EXTT2=
EXTT3=
EXTT4=
EXTT5=
EXTT6=
EXTT7=
EXTT8=
EXTT9=
EXTT10=
EXTT11=
EXTT12=
EXTT13=
EXTT14=
EXTT15=
EXTT16=
EXTT17=
PLAYORDER=
